<?xml version="1.0" encoding="utf-8"?>
<!-- Generator: Adobe Illustrator 24.3.0, SVG Export Plug-In . SVG Version: 6.00 Build 0)  -->
<svg version="1.1" id="Layer_1" xmlns="http://www.w3.org/2000/svg" xmlns:xlink="http://www.w3.org/1999/xlink" x="0px" y="0px"
	 viewBox="0 0 180 180" enable-background="new 0 0 180 180" xml:space="preserve">
<g>
	<path fill="#323E50" d="M120.421,118.78c0,6.824-5.531,12.355-12.354,12.355H72.256c-6.823,0-12.355-5.531-12.355-12.355V82.97
		c0-6.823,5.532-12.354,12.355-12.354h35.811c6.823,0,12.354,5.532,12.354,12.354V118.78z"/>
	<path fill="#39485D" d="M90.161,70.615H72.256c-6.823,0-12.355,5.532-12.355,12.354v35.81c0,6.824,5.532,12.355,12.355,12.355
		h17.905V70.615z"/>
	<path fill="#39485D" d="M62.467,90.958c0,0-19.969-22.933-8.098-42.092c0,0,26.8,6.092,24.296,21.75"/>
	<path fill="#323E50" d="M118.203,90.958c0,0,19.97-22.933,8.099-42.092c0,0-22.482,6.092-24.295,21.75"/>
	<path fill="#FFCF00" d="M67.961,92.729c0,0,0.471,15.421,18.671,9.462C86.632,102.192,86.374,91.279,67.961,92.729z"/>
	<path fill="#F6A700" d="M112.513,91.403c0,0,0.766,15.489-17.951,10.98C94.562,102.383,102.643,101.06,112.513,91.403z"/>
	<path fill="#F6A700" d="M97.625,111.412c0,4.122-3.342,7.465-7.464,7.465c-4.122,0-7.465-3.342-7.465-7.465
		c0-4.122,3.342-0.257,7.465-0.257C94.283,111.155,97.625,107.29,97.625,111.412z"/>
	<g>
		<path fill="#323E50" d="M74.334,103.161c-0.087,0.013-0.179,0.003-0.266-0.031c-0.264-0.105-0.393-0.404-0.288-0.668l3.732-9.377
			c0.105-0.264,0.403-0.393,0.669-0.288c0.264,0.105,0.393,0.405,0.288,0.668l-3.732,9.377
			C74.666,103.018,74.509,103.134,74.334,103.161z"/>
	</g>
	<path fill="#FFCF00" d="M90.161,111.155c-4.122,0-7.465-3.865-7.465,0.257c0,4.122,3.342,7.465,7.465,7.465V111.155z"/>
	<g>
		<path fill="#323E50" d="M108.673,111.751c-0.197,0-0.386-0.114-0.471-0.307c-0.115-0.259,0.002-0.564,0.262-0.679l26.779-11.862
			c0.26-0.117,0.564,0.002,0.679,0.262s-0.002,0.564-0.262,0.679l-26.779,11.863C108.813,111.736,108.742,111.751,108.673,111.751z"
			/>
	</g>
	<g>
		<path fill="#323E50" d="M108.971,115.079c-0.18-0.084-0.302-0.267-0.299-0.476c0.005-0.285,0.24-0.511,0.524-0.506l29.284,0.517
			c0.285,0.003,0.511,0.239,0.506,0.523c-0.005,0.284-0.239,0.511-0.523,0.506l-29.284-0.517
			C109.104,115.126,109.033,115.108,108.971,115.079z"/>
	</g>
	<g>
		<path fill="#323E50" d="M108.443,118.978c-0.15-0.129-0.219-0.339-0.158-0.54c0.083-0.272,0.37-0.427,0.642-0.344l28.042,8.454
			c0.274,0.08,0.427,0.369,0.345,0.641c-0.082,0.272-0.369,0.426-0.641,0.345l-28.042-8.455
			C108.558,119.058,108.496,119.022,108.443,118.978z"/>
	</g>
	<g>
		<path fill="#39485D" d="M69.268,111.751c0.198,0,0.386-0.114,0.472-0.307c0.115-0.259-0.003-0.564-0.263-0.679L42.699,98.903
			c-0.261-0.117-0.565,0.002-0.679,0.262c-0.115,0.26,0.002,0.564,0.262,0.679l26.779,11.863
			C69.128,111.736,69.199,111.751,69.268,111.751z"/>
	</g>
	<g>
		<path fill="#39485D" d="M71.029,115.079c0.18-0.084,0.302-0.267,0.299-0.476c-0.005-0.285-0.24-0.511-0.524-0.506l-29.284,0.517
			c-0.285,0.003-0.511,0.239-0.506,0.523c0.005,0.284,0.239,0.511,0.523,0.506l29.284-0.517
			C70.896,115.126,70.967,115.108,71.029,115.079z"/>
	</g>
	<g>
		<path fill="#39485D" d="M72.586,118.978c0.151-0.129,0.219-0.339,0.159-0.54c-0.083-0.272-0.37-0.427-0.643-0.344l-28.042,8.454
			c-0.274,0.08-0.427,0.369-0.344,0.641c0.082,0.272,0.369,0.426,0.641,0.345l28.042-8.455
			C72.472,119.058,72.534,119.022,72.586,118.978z"/>
	</g>
</g>
</svg>
